<?xml version="1.0" encoding="iso-8859-1"?>
<!-- Uploaded to: SVG Repo, www.svgrepo.com, Generator: SVG Repo Mixer Tools -->
<svg height="800px" width="800px" version="1.1" id="Capa_1" xmlns="http://www.w3.org/2000/svg" xmlns:xlink="http://www.w3.org/1999/xlink" 
	 viewBox="0 0 281.5 281.5" xml:space="preserve">
<g>
	<path style="fill:#010002;" d="M248.465,95.442c0.288-1.49,0.446-3.024,0.294-4.607c-2.937-31.155-29.409-90.076-108.569-90.076
		c-79.171,0-105.643,58.921-108.58,90.076c-0.174,1.849,0.033,3.633,0.446,5.341c-19.292,15.3-35.229,48.761-31.514,83.196
		c2.904,26.956,20.783,75.239,107.878,95.744c14.849,3.503,29.746,5.624,32.33,5.624c2.589,0,17.481-2.127,32.324-5.624
		c87.101-20.505,104.979-68.788,107.884-95.744C284.738,144.356,268.192,110.367,248.465,95.442z M140.189,33.394
		c52.868,0,69.163,33.2,74.08,50.643c-14.207-1.213-30.725,0.239-49.256,4.465c-10.166,2.322-18.961,5.026-24.264,6.744
		c-5.303-1.719-14.093-4.422-24.258-6.744c-19.026-4.346-35.952-5.782-50.404-4.395C70.999,66.626,87.289,33.394,140.189,33.394z
		 M248.519,175.87c-3.47,32.188-32.145,55.522-82.924,67.477c-11.373,2.681-21.174,4.134-24.84,4.634
		c-3.671-0.5-13.473-1.947-24.846-4.634c-50.779-11.955-79.454-35.289-82.919-67.477c-3.068-28.457,13.962-52.03,21.909-55.832
		c5.396-2.584,12.76-3.889,21.887-3.889c9.431,0,20.348,1.403,32.444,4.166c11.466,2.622,21.136,5.852,24.78,7.071
		c2.252,0.756,4.03,1.349,6.75,1.349c2.72,0,4.498-0.593,6.75-1.349c3.639-1.218,13.309-4.449,24.78-7.071
		c23.807-5.434,43.355-5.532,54.336-0.272C234.557,123.84,251.587,147.413,248.519,175.87z"/>
	<path style="fill:#010002;" d="M155.103,165.9c0-8.164-6.619-14.789-14.778-14.789c-8.169,0-14.789,6.625-14.789,14.789
		c0,5.918,3.497,10.987,8.518,13.347c0,0-2.953,8.719-6.603,19.477c-3.65,10.758,2.116,19.477,12.869,19.477
		c10.758,0,16.002-8.534,11.721-19.064l-7.751-19.058C150.513,178.339,155.103,172.683,155.103,165.9z"/>
</g>
</svg>